<svg width="45" height="40" viewBox="0 0 45 40" fill="none" xmlns="http://www.w3.org/2000/svg">
<path d="M0 0H45V40H0V0Z" fill="white"/>
<path d="M21.5 17H23.5V14H26.5V12H23.5V9H21.5V12H18.5V14H21.5V17ZM17.5 26C16.4 26 15.51 26.9 15.51 28C15.51 29.1 16.4 30 17.5 30C18.6 30 19.5 29.1 19.5 28C19.5 26.9 18.6 26 17.5 26ZM27.5 26C26.4 26 25.51 26.9 25.51 28C25.51 29.1 26.4 30 27.5 30C28.6 30 29.5 29.1 29.5 28C29.5 26.9 28.6 26 27.5 26ZM17.67 22.75L17.7 22.63L18.6 21H26.05C26.8 21 27.46 20.59 27.8 19.97L31.66 12.96L29.92 12H29.91L28.81 14L26.05 19H19.03L18.9 18.73L16.66 14L15.71 12L14.77 10H11.5V12H13.5L17.1 19.59L15.75 22.04C15.59 22.32 15.5 22.65 15.5 23C15.5 24.1 16.4 25 17.5 25H29.5V23H17.92C17.79 23 17.67 22.89 17.67 22.75Z" fill="#000D32"/>
</svg>
