<svg width="23" height="24" viewBox="0 0 23 24" fill="none" xmlns="http://www.w3.org/2000/svg">
  <g id="icon">
    <path d="M0 12.2954C0 5.94414 5.14873 0.79541 11.5 0.79541C17.8513 0.79541 23 5.94414 23 12.2954C23 18.6467 17.8513 23.7954 11.5 23.7954C5.14873 23.7954 0 18.6467 0 12.2954Z" fill="white"/>
    <path d="M11.4515 10.7925H12.6596V8.98908H14.4717V7.78681H12.6596V5.9834H11.4515V7.78681H9.63942V8.98908H11.4515V10.7925ZM9.03538 16.2027C8.37093 16.2027 7.83334 16.7437 7.83334 17.405C7.83334 18.0662 8.37093 18.6073 9.03538 18.6073C9.69982 18.6073 10.2435 18.0662 10.2435 17.405C10.2435 16.7437 9.69982 16.2027 9.03538 16.2027ZM15.0758 16.2027C14.4113 16.2027 13.8737 16.7437 13.8737 17.405C13.8737 18.0662 14.4113 18.6073 15.0758 18.6073C15.7402 18.6073 16.2839 18.0662 16.2839 17.405C16.2839 16.7437 15.7402 16.2027 15.0758 16.2027ZM9.13806 14.249L9.15618 14.1769L9.69982 13.197H14.1999C14.653 13.197 15.0516 12.9506 15.257 12.5779L17.5886 8.3639L16.5376 7.78681H16.5315L15.8671 8.98908L14.1999 11.9948H9.95956L9.88103 11.8325L8.52798 8.98908L7.95414 7.78681L7.38635 6.58453H5.41113V7.78681H6.61921L8.79376 12.3494L7.9783 13.8222C7.88166 13.9905 7.82729 14.1889 7.82729 14.3993C7.82729 15.0606 8.37093 15.6016 9.03538 15.6016H16.2839V14.3993H9.28907C9.21055 14.3993 9.13806 14.3332 9.13806 14.249Z" fill="#000D32"/>
  </g>
</svg>
