<svg width="41" height="40" viewBox="0 0 41 40" fill="none" xmlns="http://www.w3.org/2000/svg">
<rect x="0.160156" width="40" height="40" fill="white"/>
<path d="M15.1602 27C14.0602 27 13.1702 27.9 13.1702 29C13.1702 30.1 14.0602 31 15.1602 31C16.2602 31 17.1602 30.1 17.1602 29C17.1602 27.9 16.2602 27 15.1602 27ZM9.16016 11V13H11.1602L14.7602 20.59L13.4102 23.04C13.2502 23.32 13.1602 23.65 13.1602 24C13.1602 25.1 14.0602 26 15.1602 26H27.1602V24H15.5802C15.4402 24 15.3302 23.89 15.3302 23.75L15.3602 23.63L16.2602 22H23.7102C24.4602 22 25.1202 21.59 25.4602 20.97L29.0402 14.48C29.1202 14.34 29.1602 14.17 29.1602 14C29.1602 13.45 28.7102 13 28.1602 13H13.3702L12.4302 11H9.16016ZM25.1602 27C24.0602 27 23.1702 27.9 23.1702 29C23.1702 30.1 24.0602 31 25.1602 31C26.2602 31 27.1602 30.1 27.1602 29C27.1602 27.9 26.2602 27 25.1602 27Z" fill="#000D32"/>
</svg>
