<svg width="40" height="40" viewBox="0 0 11 16" fill="none" xmlns="http://www.w3.org/2000/svg">
<path d="M3.42459 7.35402C4.59792 7.31002 5.52192 7.05335 6.19659 6.58402C6.88592 6.10002 7.23059 5.36668 7.23059 4.38402V3.92202C7.23059 3.05668 6.98859 2.40402 6.50459 1.96402C6.02059 1.50935 5.38992 1.28202 4.61259 1.28202C4.18725 1.28202 3.82792 1.31868 3.53459 1.39202C3.24125 1.45068 2.99192 1.53868 2.78659 1.65602V1.72202C2.99192 1.83935 3.17525 2.00802 3.33659 2.22802C3.51259 2.44802 3.60059 2.71202 3.60059 3.02002C3.60059 3.44535 3.46859 3.81202 3.20459 4.12002C2.94059 4.41335 2.56659 4.56002 2.08259 4.56002C1.61325 4.56002 1.23925 4.41335 0.960586 4.12002C0.696586 3.81202 0.564586 3.40868 0.564586 2.91002C0.564586 2.52868 0.674586 2.16935 0.894586 1.83202C1.12925 1.48002 1.44459 1.17935 1.84059 0.930017C2.23659 0.666016 2.70592 0.460683 3.24859 0.314015C3.80592 0.152682 4.41459 0.0720158 5.07459 0.0720158C6.65859 0.0720158 7.87592 0.438683 8.72659 1.17202C9.57725 1.90535 10.0026 2.89535 10.0026 4.14202C10.0026 4.83135 9.87059 5.44735 9.60659 5.99002C9.34259 6.51802 8.97592 6.97268 8.50659 7.35402C8.05192 7.73535 7.50925 8.04335 6.87859 8.27802C6.24792 8.49802 5.57325 8.64468 4.85459 8.71802V10.94H3.42459V7.35402ZM4.15059 15.956C3.63725 15.956 3.23392 15.802 2.94059 15.494C2.66192 15.186 2.52259 14.8193 2.52259 14.394V14.262C2.52259 13.8367 2.66192 13.47 2.94059 13.162C3.23392 12.854 3.63725 12.7 4.15059 12.7C4.66392 12.7 5.05992 12.854 5.33859 13.162C5.63192 13.47 5.77859 13.8367 5.77859 14.262V14.394C5.77859 14.8193 5.63192 15.186 5.33859 15.494C5.05992 15.802 4.66392 15.956 4.15059 15.956Z" fill="#000D32"/>
</svg>
