<svg width="40" height="40" viewBox="0 0 40 40" fill="none" xmlns="http://www.w3.org/2000/svg">
<rect width="40" height="40" rx="20" fill="white"/>
<path d="M18.1906 19.662C19.364 19.618 20.288 19.3613 20.9626 18.892C21.652 18.408 21.9966 17.6747 21.9966 16.692V16.23C21.9966 15.3647 21.7546 14.712 21.2706 14.272C20.7866 13.8173 20.156 13.59 19.3786 13.59C18.9533 13.59 18.594 13.6267 18.3006 13.7C18.0073 13.7587 17.758 13.8467 17.5526 13.964V14.03C17.758 14.1473 17.9413 14.316 18.1026 14.536C18.2786 14.756 18.3666 15.02 18.3666 15.328C18.3666 15.7533 18.2346 16.12 17.9706 16.428C17.7066 16.7213 17.3326 16.868 16.8486 16.868C16.3793 16.868 16.0053 16.7213 15.7266 16.428C15.4626 16.12 15.3306 15.7167 15.3306 15.218C15.3306 14.8367 15.4406 14.4773 15.6606 14.14C15.8953 13.788 16.2106 13.4873 16.6066 13.238C17.0026 12.974 17.472 12.7687 18.0146 12.622C18.572 12.4607 19.1806 12.38 19.8406 12.38C21.4246 12.38 22.642 12.7467 23.4926 13.48C24.3433 14.2133 24.7686 15.2033 24.7686 16.45C24.7686 17.1393 24.6366 17.7553 24.3726 18.298C24.1086 18.826 23.742 19.2807 23.2726 19.662C22.818 20.0433 22.2753 20.3513 21.6446 20.586C21.014 20.806 20.3393 20.9527 19.6206 21.026V23.248H18.1906V19.662ZM18.9166 28.264C18.4033 28.264 18 28.11 17.7066 27.802C17.428 27.494 17.2886 27.1273 17.2886 26.702V26.57C17.2886 26.1447 17.428 25.778 17.7066 25.47C18 25.162 18.4033 25.008 18.9166 25.008C19.43 25.008 19.826 25.162 20.1046 25.47C20.398 25.778 20.5446 26.1447 20.5446 26.57V26.702C20.5446 27.1273 20.398 27.494 20.1046 27.802C19.826 28.11 19.43 28.264 18.9166 28.264Z" fill="#E95C44"/>
</svg>
