<svg width="23" height="24" viewBox="0 0 23 24" fill="none" xmlns="http://www.w3.org/2000/svg">
  <g id="icon">
    <path d="M0 12.3848C0 6.03349 5.14873 0.884766 11.5 0.884766C17.8513 0.884766 23 6.03349 23 12.3848C23 18.736 17.8513 23.8848 11.5 23.8848C5.14873 23.8848 0 18.736 0 12.3848Z" fill="#000d32"/>
    <path d="M16.3892 11.838C16.1377 9.55748 14.3275 7.74729 12.047 7.49572V6.36914H10.9532V7.49572C8.67271 7.74729 6.86252 9.55748 6.61096 11.838H5.48438V12.9318H6.61096C6.86252 15.2123 8.67271 17.0224 10.9532 17.274V18.4006H12.047V17.274C14.3275 17.0224 16.1377 15.2123 16.3892 12.9318H17.5158V11.838H16.3892ZM11.5001 16.2131C9.38366 16.2131 7.67191 14.5013 7.67191 12.3849C7.67191 10.2684 9.38366 8.55668 11.5001 8.55668C13.6165 8.55668 15.3283 10.2684 15.3283 12.3849C15.3283 14.5013 13.6165 16.2131 11.5001 16.2131Z" fill="white"/>
    <path d="M11.5 22.8848C5.70101 22.8848 1 18.1838 1 12.3848H-1C-1 19.2883 4.59644 24.8848 11.5 24.8848V22.8848ZM22 12.3848C22 18.1838 17.299 22.8848 11.5 22.8848V24.8848C18.4036 24.8848 24 19.2883 24 12.3848H22ZM11.5 1.88477C17.299 1.88477 22 6.58578 22 12.3848H24C24 5.48121 18.4036 -0.115234 11.5 -0.115234V1.88477ZM11.5 -0.115234C4.59644 -0.115234 -1 5.48121 -1 12.3848H1C1 6.58578 5.70101 1.88477 11.5 1.88477V-0.115234Z" fill="white"/>
  </g>
</svg>
