<svg xmlns="http://www.w3.org/2000/svg" width="180" height="180" viewBox="-6 -6 28 28" preserveAspectRatio="xMidYMid" xmlns:usvg="https://github.com/RazrFalcon/usvg" usvg:version="0.5.0">
  <rect width="32" height="32" x="-6" y="-6" fill="#fff"/>
    <path id="path822" fill="none" stroke="#000000" stroke-dasharray="none" stroke-dashoffset="0" stroke-linecap="round" stroke-linejoin="round" stroke-miterlimit="4" stroke-opacity="1" stroke-width="0.93333334" marker-end="none" marker-mid="none" marker-start="none" visibility="visible" d="M 8.3033055 2.6605309 C 7.51970338821 2.64604616165 6.8553276062 2.35726618767 6.31017684937 1.79419100285 C 5.76502656937 1.23111617565 5.49788427353 0.55774837732 5.5087480545 -0.22591252625 C 5.51961278915 -1.00957322121 5.80531930923 -1.67527639866 6.36586904526 -2.2230219841 C 6.92641782761 -2.77076792717 7.59854364395 -3.0410194397 8.38224697113 -3.0337767601 C 9.1659488678 -3.02653384209 9.83296489716 -2.74390602112 10.3832950592 -2.1858932972 C 10.9336271286 -1.62787973881 11.20698070526 -0.95700979233 11.20335865021 -0.17328314483 C 11.1997385025 0.61044389009 10.9201965332 1.27875912189 10.36473178864 1.83166253567 C 9.80926799774 2.38456583023 9.13966751099 2.66101741791 8.35593318939 2.66101741791"/>
    <path id="path822-3" fill="none" stroke="#000000" stroke-dasharray="none" stroke-dashoffset="0" stroke-linecap="round" stroke-linejoin="round" stroke-miterlimit="4" stroke-opacity="1" stroke-width="0.93333334" marker-end="none" marker-mid="none" marker-start="none" visibility="visible" d="M 8.1846627 10.846949 C 7.40106058121 10.83246326447 6.73668432236 10.54368495941 6.19153404236 9.98060894012 C 5.64638376236 9.41753387451 5.37924051285 8.74416637421 5.3901052475 7.96050548553 C 5.40096902847 7.17684555054 5.68667650223 6.51114273071 6.24722623825 5.96339607239 C 6.80777740479 5.41564941406 7.47990369797 5.14539766312 8.26360416412 5.15264129639 C 9.04730510712 5.15988254547 9.71432113647 5.44251012802 10.26465320587 6.00052452087 C 10.81498432159 6.55853891373 11.0883398056 7.229408741 11.08471679688 8.01313495636 C 11.08109664917 8.79686355591 10.80155467987 9.46517848969 10.24608898163 10.01807975769 C 9.69062519073 10.57098484039 9.02102565765 10.84743595123 8.23728942871 10.84743499756"/>
    <path id="path822-3-6" fill="none" stroke="#000000" stroke-dasharray="none" stroke-dashoffset="0" stroke-linecap="round" stroke-linejoin="round" stroke-miterlimit="4" stroke-opacity="1" stroke-width="0.93333334" marker-end="none" marker-mid="none" marker-start="none" visibility="visible" d="M 2.2524598 17.01644 C 1.46885836124 17.00195503235 0.80448263884 16.71317481995 0.25933241844 16.15010070801 C -0.28581789136 15.5870256424 -0.55296117067 14.91365909576 -0.54209733009 14.12999916077 C -0.53123360872 13.34633731842 -0.24552702904 12.68063354492 0.31502246857 12.13288879395 C 0.87557297945 11.58514118195 1.54769909382 11.31489086151 2.33140087128 11.32213401794 C 3.11510300636 11.3293762207 3.78211951256 11.61200428009 4.33244991302 12.17001724243 C 4.88278055191 12.72803020477 5.15613555908 13.39889907837 5.15251398087 14.18262672424 C 5.14889383316 14.96635723114 4.86935138702 15.63467121124 4.31388664246 16.18757247925 C 3.75842547417 16.74047660828 3.08882522583 17.01692771912 2.30508637428 17.01692771912"/>
    <path id="path822-3-7" fill="none" stroke="#000000" stroke-dasharray="none" stroke-dashoffset="0" stroke-linecap="round" stroke-linejoin="round" stroke-miterlimit="4" stroke-opacity="1" stroke-width="0.93333334" marker-end="none" marker-mid="none" marker-start="none" visibility="visible" d="M 14.235511 17.135085 C 13.45190525055 17.12059593201 12.7875289917 16.8318157196 12.24238300323 16.26874542236 C 11.6972322464 15.70567035675 11.43008899689 15.03230285645 11.4409532547 14.24864387512 C 11.45181941986 13.46498394012 11.73752593994 12.79927921295 12.29807376862 12.2515335083 C 12.85862350464 11.70378875732 13.53075027466 11.43353748322 14.31445217133 11.4407787323 C 15.09815597534 11.44802188873 15.7651720047 11.73064899445 16.3155002594 12.28866195679 C 16.86582946777 12.84667110443 17.13918304443 13.51753997803 17.13556480408 14.3012714386 C 17.13194084167 15.0849943161 16.8523979187 15.7533082962 16.29693603516 16.30621528625 C 15.74146652222 16.85911750793 15.07186794281 17.13556861877 14.28813838959 17.13557052612"/>
    <path id="path822-3-5" fill="none" stroke="#000000" stroke-dasharray="none" stroke-dashoffset="0" stroke-linecap="round" stroke-linejoin="round" stroke-miterlimit="4" stroke-opacity="1" stroke-width="0.93333334" marker-end="none" marker-mid="none" marker-start="none" visibility="visible" d="M 15.421951 8.4740675 C 14.63835144043 8.45958709717 13.97397518158 8.17080688477 13.4288225174 7.60772848129 C 12.88367366791 7.0446562767 12.6165304184 6.37128829956 12.62739372253 5.5876250267 C 12.638256073 4.80396604538 12.92396259308 4.13826274872 13.48451328278 3.59051537514 C 14.04506206512 3.04277014732 14.71718883514 2.77251815796 15.50089073181 2.7797601223 C 16.2845916748 2.78700232506 16.95160865784 3.06962966919 17.50193977356 3.62764310837 C 18.05226898193 4.18565559387 18.32562446594 4.85652542114 18.32200431824 5.64025354385 C 18.31838226318 6.4239821434 18.03883934021 7.09229660034 17.48337745667 7.64519882202 C 16.92790794373 8.19810581207 16.25830841064 8.47455787659 15.47457790375 8.47455406189"/>
    <path id="path866" fill="none" stroke="#000000" stroke-dasharray="none" stroke-dashoffset="0" stroke-linecap="butt" stroke-linejoin="miter" stroke-miterlimit="4" stroke-opacity="1" stroke-width="0.93333333" marker-end="none" marker-mid="none" marker-start="none" visibility="visible" d="M 3.966102 12.152544 L 5.9830511 10.135593"/>
    <path id="path870" fill="none" stroke="#000000" stroke-dasharray="none" stroke-dashoffset="0" stroke-linecap="butt" stroke-linejoin="miter" stroke-miterlimit="4" stroke-opacity="1" stroke-width="0.93333333" marker-end="none" marker-mid="none" marker-start="none" visibility="visible" d="M 8.3033059 2.6605311 L 8.3559329 5.2711867"/>
    <path id="path874" fill="none" stroke="#000000" stroke-dasharray="none" stroke-dashoffset="0" stroke-linecap="butt" stroke-linejoin="miter" stroke-miterlimit="4" stroke-opacity="1" stroke-width="0.93333333" marker-end="none" marker-mid="none" marker-start="none" visibility="visible" d="M 10.728814 7.0508478 L 12.508475 6.2203393"/>
    <path id="path878" fill="none" stroke="#000000" stroke-dasharray="none" stroke-dashoffset="0" stroke-linecap="butt" stroke-linejoin="miter" stroke-miterlimit="4" stroke-opacity="1" stroke-width="1.04351452" marker-end="none" marker-mid="none" marker-start="none" visibility="visible" transform="matrix(0.88332042 0 0 0.90564562 1.4959684 1.2024879)" d="M 9.8983056 9.5423733 L 12.508475 12.389831"/>
</svg>
