<svg width="148" height="25" viewBox="0 0 148 25" fill="none" xmlns="http://www.w3.org/2000/svg">
<path fill-rule="evenodd" clip-rule="evenodd" d="M50.0187 3.14371H39.8505L39.6262 9.99252H43.028C48.4486 9.99252 51.0654 13.0988 51.0654 16.7665C51.0654 21.482 47.5514 24.1392 43.1776 24.1392C39.9252 24.1392 37.3084 22.9042 35.3645 20.5464L37.0467 18.8997C38.5421 20.6961 40.8224 21.7066 43.1402 21.7066C46.5421 21.7066 48.4112 19.5734 48.4112 16.991C48.4112 14.4835 46.729 12.3877 42.2056 12.3877H37.1963L37.4953 0.748505H49.9813V3.14371H50.0187Z" fill="#09122F"/>
<path fill-rule="evenodd" clip-rule="evenodd" d="M82.0935 4.30389L80.1495 6.17514C78.5047 4.19161 76.0374 2.99401 73.1589 2.99401C68 2.99401 64.0374 6.73652 64.0374 12.3129C64.0374 17.8518 68 21.6317 73.0467 21.6317C77.9065 21.6317 80.9346 18.7126 81.3458 13.997H74.1682V11.5269H84.2243C84.2243 11.7515 84.2617 11.976 84.2617 12.2006C84.2617 18.9371 80 24.1766 73.0467 24.1766C66.9907 24.1766 61.271 19.7979 61.271 12.3129C61.271 5.35179 66.3925 0.449098 73.1589 0.449098C76.8224 0.411672 80 1.87125 82.0935 4.30389Z" fill="#09122F"/>
<path fill-rule="evenodd" clip-rule="evenodd" d="M24.2991 23.0165L13.7944 12.5L24.2991 2.02095L22.6168 0.336823L12.1495 10.8533L1.64486 0.336823L0 2.02095L10.4673 12.5L0 23.0165L1.64486 24.6632L12.1495 14.1841L22.6168 24.6632L24.2991 23.0165Z" fill="#26A658"/>
<path d="M106.243 25C99.3645 25 93.757 19.3862 93.757 12.5C93.757 5.61377 99.3645 0 106.243 0C113.121 0 118.729 5.61377 118.729 12.5C118.729 19.3862 113.121 25 106.243 25ZM106.243 2.35778C100.636 2.35778 96.1122 6.92365 96.1122 12.5C96.1122 18.0763 100.673 22.6422 106.243 22.6422C111.85 22.6422 116.374 18.0763 116.374 12.5C116.374 6.92365 111.813 2.35778 106.243 2.35778Z" fill="#049CCD"/>
<path fill-rule="evenodd" clip-rule="evenodd" d="M148 23.8398H145.607L131.327 5.31437V23.8398H128.673V0.748505H131.065L145.346 19.274V0.748505H148V23.8398Z" fill="#09122F"/>
</svg>
